# xmcd
#
# Track frame offsets: 
#        150
#        13100
#        31437
#        53600
#        70650
#        91900
#        108672
#        125025
#        145377
#        155440
#
# Disc length: 2322 seconds
#
# Revision: 2
# Processed by: cddbd v1.5.1PL0 Copyright (c) Steve Scherf et al.
# Submitted via: ExactAudioCopy v0.95a5
#
DISCID=8609100a
DTITLE=Newsong - Light Your World
DYEAR=1989
DGENRE=Contemporary Christian
TTITLE0=Love Is
TTITLE1=Square Peg, Round Hole
TTITLE2=Light Your World
TTITLE3=Father Of Love
TTITLE4=Trust His Heart
TTITLE5=Talking To You
TTITLE6=So It Goes
TTITLE7=Without A Word
TTITLE8=Soli Deo Gloria
TTITLE9=Not The Half Has Been Told
EXTD=
EXTT0=
EXTT1=
EXTT2=
EXTT3=
EXTT4=
EXTT5=
EXTT6=
EXTT7=
EXTT8=
EXTT9=
PLAYORDER=
